<svg width="660" height="452" viewBox="0 0 660 452" fill="none" xmlns="http://www.w3.org/2000/svg">
<rect x="360.432" y="327" width="79" height="60" transform="rotate(43.6712 360.432 327)" fill="#0C0C0C"/>
<path d="M261.5 268.5L337.977 77.8247L577.829 286.285L404.999 426L261.5 268.5Z" fill="#0C0C0C"/>
<circle cx="286.5" cy="163.5" r="27.5" fill="white"/>
<path fill-rule="evenodd" clip-rule="evenodd" d="M100.761 106.611C156.4 55.3737 237.37 0 329.854 0C422.336 0 503.304 55.3737 558.943 106.611C587.209 132.641 610.008 158.593 625.737 178.02C633.617 187.75 639.761 195.893 643.975 201.657C646.079 204.54 647.705 206.83 648.822 208.43C649.382 209.23 649.816 209.857 650.119 210.3L650.476 210.823L650.582 210.98L650.616 211.03L660 225L650.629 238.953L650.582 239.02L650.476 239.177L650.119 239.7C649.816 240.143 649.382 240.77 648.822 241.57C647.705 243.17 646.079 245.46 643.975 248.343C639.761 254.107 633.617 262.25 625.737 271.98C610.008 291.407 587.209 317.36 558.943 343.39C503.304 394.627 422.336 450 329.854 450C237.37 450 156.4 394.627 100.761 343.39C72.4955 317.36 49.6979 291.407 33.9684 271.98C26.0883 262.25 19.9423 254.107 15.7312 248.343C13.6247 245.46 11.9995 243.17 10.8811 241.57C10.3217 240.77 9.88865 240.143 9.58529 239.7L9.22759 239.177L9.12225 239.02L9.08824 238.97L0 225.44L9.12225 210.98L9.22759 210.823L9.58529 210.3C9.88865 209.857 10.3217 209.23 10.8811 208.43C11.9995 206.83 13.6247 204.54 15.7312 201.657C19.9423 195.893 26.0883 187.75 33.9684 178.02C49.6979 158.593 72.4955 132.641 100.761 106.611ZM60.682 225C63.9834 229.37 68.0524 234.617 72.8322 240.52C87.4677 258.593 108.608 282.64 134.637 306.61C187.588 355.373 256.633 400 329.854 400C403.071 400 472.118 355.373 525.067 306.61C551.096 282.64 572.238 258.593 586.873 240.52C591.653 234.617 595.72 229.37 599.024 225C595.72 220.63 591.653 215.383 586.873 209.48C572.238 191.407 551.096 167.36 525.067 143.389C472.118 94.6263 403.071 50 329.854 50C256.633 50 187.588 94.6263 134.637 143.389C108.608 167.36 87.4677 191.407 72.8322 209.48C68.0524 215.383 63.9834 220.63 60.682 225Z" fill="white"/>
<path fill-rule="evenodd" clip-rule="evenodd" d="M329.828 75C333.069 75 336.198 76.1893 338.62 78.3424C371.395 107.476 395.098 138.471 409.072 170.468C422.437 201.07 426.028 231.389 419.456 258.147C415.055 276.221 405.743 292.726 392.55 305.84C379.591 318.798 362.831 328.829 343.061 335.235L343.061 362.709C343.059 366.217 341.664 369.58 339.182 372.06C336.701 374.54 333.336 375.933 329.828 375.933C326.32 375.933 322.956 374.54 320.474 372.06C317.993 369.58 316.598 366.217 316.595 362.709L316.595 335.234C276.769 322.327 249.171 294.673 240.2 258.147C233.629 231.389 237.22 201.071 250.585 170.468C264.559 138.472 288.266 107.478 321.037 78.3424C323.459 76.1893 326.587 75 329.828 75Z" fill="#77DD42"/>
<path fill-rule="evenodd" clip-rule="evenodd" d="M253.469 164.166C259.007 152.597 265.822 141.167 273.883 129.919C276.697 129.041 279.69 128.567 282.793 128.567C299.291 128.567 312.665 141.942 312.665 158.44C312.665 174.938 299.291 188.312 282.793 188.312C268.253 188.312 256.14 177.924 253.469 164.166Z" fill="white"/>
<path fill-rule="evenodd" clip-rule="evenodd" d="M330.046 375.931V75.002C333.209 75.0539 336.252 76.2377 338.62 78.3426C371.395 107.476 395.098 138.471 409.072 170.468C422.437 201.07 426.028 231.39 419.456 258.147C415.055 276.221 405.743 292.726 392.55 305.84C379.591 318.799 362.831 328.829 343.061 335.235L343.061 362.709C343.059 366.217 341.664 369.58 339.182 372.06C336.752 374.488 333.475 375.875 330.046 375.931Z" fill="#48C477"/>
</svg>
